<mxfile host="app.diagrams.net" agent="Mozilla/5.0 (Windows NT 10.0; Win64; x64; rv:139.0) Gecko/20100101 Firefox/139.0" version="27.1.5">
  <diagram name="Page-1" id="owErxfVGj2I-4EUyyvJw">
    <mxGraphModel dx="2722" dy="2516" grid="1" gridSize="10" guides="1" tooltips="1" connect="1" arrows="1" fold="1" page="1" pageScale="1" pageWidth="827" pageHeight="1169" math="0" shadow="0">
      <root>
        <mxCell id="0" />
        <mxCell id="1" parent="0" />
        <mxCell id="OgpxmW688mGqOEu5eJft-1" value="&amp;nbsp;" style="rounded=1;whiteSpace=wrap;html=1;fillColor=#D4D4D4;" parent="1" vertex="1">
          <mxGeometry x="1220" y="130" width="620" height="560" as="geometry" />
        </mxCell>
        <mxCell id="OgpxmW688mGqOEu5eJft-2" value="&amp;nbsp;" style="rounded=1;whiteSpace=wrap;html=1;fillColor=#99FFCC;" parent="1" vertex="1">
          <mxGeometry x="40" y="40" width="890" height="910" as="geometry" />
        </mxCell>
        <mxCell id="OgpxmW688mGqOEu5eJft-3" value="" style="rounded=1;whiteSpace=wrap;html=1;fillColor=#FF9999;" parent="1" vertex="1">
          <mxGeometry x="90" y="530" width="368.5" height="370" as="geometry" />
        </mxCell>
        <mxCell id="OgpxmW688mGqOEu5eJft-4" value="" style="rounded=1;whiteSpace=wrap;html=1;fillColor=#FFFF66;" parent="1" vertex="1">
          <mxGeometry x="90" y="340" width="365" height="145" as="geometry" />
        </mxCell>
        <mxCell id="OgpxmW688mGqOEu5eJft-5" value="" style="rounded=1;whiteSpace=wrap;html=1;fillColor=#CCFF99;" parent="1" vertex="1">
          <mxGeometry x="90" y="155" width="365" height="145" as="geometry" />
        </mxCell>
        <mxCell id="OgpxmW688mGqOEu5eJft-6" value="" style="shape=mxgraph.cisco.computers_and_peripherals.pc;sketch=0;html=1;pointerEvents=1;dashed=0;fillColor=#036897;strokeColor=#ffffff;strokeWidth=2;verticalLabelPosition=bottom;verticalAlign=top;align=center;outlineConnect=0;" parent="1" vertex="1">
          <mxGeometry x="377" y="170" width="50" height="50" as="geometry" />
        </mxCell>
        <mxCell id="OgpxmW688mGqOEu5eJft-7" value="" style="shape=mxgraph.cisco.computers_and_peripherals.ibm_mini_as400;sketch=0;html=1;pointerEvents=1;dashed=0;fillColor=#036897;strokeColor=#ffffff;strokeWidth=2;verticalLabelPosition=bottom;verticalAlign=top;align=center;outlineConnect=0;" parent="1" vertex="1">
          <mxGeometry x="1273" y="320" width="43" height="62" as="geometry" />
        </mxCell>
        <mxCell id="OgpxmW688mGqOEu5eJft-8" value="" style="shape=mxgraph.cisco.computers_and_peripherals.ibm_mini_as400;sketch=0;html=1;pointerEvents=1;dashed=0;fillColor=#036897;strokeColor=#ffffff;strokeWidth=2;verticalLabelPosition=bottom;verticalAlign=top;align=center;outlineConnect=0;" parent="1" vertex="1">
          <mxGeometry x="715" y="660" width="43" height="62" as="geometry" />
        </mxCell>
        <mxCell id="OgpxmW688mGqOEu5eJft-9" value="" style="shape=mxgraph.cisco.computers_and_peripherals.ibm_mini_as400;sketch=0;html=1;pointerEvents=1;dashed=0;fillColor=#036897;strokeColor=#ffffff;strokeWidth=2;verticalLabelPosition=bottom;verticalAlign=top;align=center;outlineConnect=0;" parent="1" vertex="1">
          <mxGeometry x="1654" y="320" width="43" height="62" as="geometry" />
        </mxCell>
        <mxCell id="OgpxmW688mGqOEu5eJft-10" value="" style="shape=mxgraph.cisco.computers_and_peripherals.ibm_mini_as400;sketch=0;html=1;pointerEvents=1;dashed=0;fillColor=#036897;strokeColor=#ffffff;strokeWidth=2;verticalLabelPosition=bottom;verticalAlign=top;align=center;outlineConnect=0;" parent="1" vertex="1">
          <mxGeometry x="1463" y="320" width="43" height="62" as="geometry" />
        </mxCell>
        <mxCell id="OgpxmW688mGqOEu5eJft-11" value="" style="shape=mxgraph.cisco.computers_and_peripherals.ibm_mini_as400;sketch=0;html=1;pointerEvents=1;dashed=0;fillColor=#036897;strokeColor=#ffffff;strokeWidth=2;verticalLabelPosition=bottom;verticalAlign=top;align=center;outlineConnect=0;" parent="1" vertex="1">
          <mxGeometry x="715" y="278" width="43" height="62" as="geometry" />
        </mxCell>
        <mxCell id="OgpxmW688mGqOEu5eJft-12" value="" style="shape=mxgraph.cisco.computers_and_peripherals.video_camera;sketch=0;html=1;pointerEvents=1;dashed=0;fillColor=#036897;strokeColor=#ffffff;strokeWidth=2;verticalLabelPosition=bottom;verticalAlign=top;align=center;outlineConnect=0;" parent="1" vertex="1">
          <mxGeometry x="377" y="800" width="43" height="80" as="geometry" />
        </mxCell>
        <mxCell id="OgpxmW688mGqOEu5eJft-13" value="" style="shape=mxgraph.cisco.computers_and_peripherals.video_camera;sketch=0;html=1;pointerEvents=1;dashed=0;fillColor=#036897;strokeColor=#ffffff;strokeWidth=2;verticalLabelPosition=bottom;verticalAlign=top;align=center;outlineConnect=0;" parent="1" vertex="1">
          <mxGeometry x="373.5" y="700" width="43" height="80" as="geometry" />
        </mxCell>
        <mxCell id="OgpxmW688mGqOEu5eJft-14" value="" style="shape=mxgraph.cisco.modems_and_phones.phone;sketch=0;html=1;pointerEvents=1;dashed=0;fillColor=#036897;strokeColor=#ffffff;strokeWidth=2;verticalLabelPosition=bottom;verticalAlign=top;align=center;outlineConnect=0;" parent="1" vertex="1">
          <mxGeometry x="1529.5" y="487" width="64" height="46" as="geometry" />
        </mxCell>
        <mxCell id="OgpxmW688mGqOEu5eJft-15" value="" style="shape=mxgraph.cisco.modems_and_phones.phone;sketch=0;html=1;pointerEvents=1;dashed=0;fillColor=#036897;strokeColor=#ffffff;strokeWidth=2;verticalLabelPosition=bottom;verticalAlign=top;align=center;outlineConnect=0;" parent="1" vertex="1">
          <mxGeometry x="363" y="240" width="64" height="46" as="geometry" />
        </mxCell>
        <mxCell id="OgpxmW688mGqOEu5eJft-16" value="&lt;div&gt;Routeur &lt;br&gt;&lt;/div&gt;&lt;div&gt;Société 9&lt;br&gt;&lt;/div&gt;" style="shape=mxgraph.cisco.routers.router;sketch=0;html=1;pointerEvents=1;dashed=0;fillColor=#036897;strokeColor=#ffffff;strokeWidth=2;verticalLabelPosition=bottom;verticalAlign=top;align=center;outlineConnect=0;" parent="1" vertex="1">
          <mxGeometry x="894" y="490" width="60" height="40" as="geometry" />
        </mxCell>
        <mxCell id="OgpxmW688mGqOEu5eJft-17" value="&amp;nbsp;" style="shape=mxgraph.cisco.routers.router;sketch=0;html=1;pointerEvents=1;dashed=0;fillColor=#036897;strokeColor=#ffffff;strokeWidth=2;verticalLabelPosition=bottom;verticalAlign=top;align=center;outlineConnect=0;" parent="1" vertex="1">
          <mxGeometry x="1401.5" y="602" width="60" height="40" as="geometry" />
        </mxCell>
        <mxCell id="OgpxmW688mGqOEu5eJft-18" style="edgeStyle=orthogonalEdgeStyle;rounded=0;orthogonalLoop=1;jettySize=auto;html=1;exitX=0.98;exitY=0.5;exitDx=0;exitDy=0;exitPerimeter=0;" parent="1" source="OgpxmW688mGqOEu5eJft-19" target="OgpxmW688mGqOEu5eJft-14" edge="1">
          <mxGeometry relative="1" as="geometry" />
        </mxCell>
        <mxCell id="OgpxmW688mGqOEu5eJft-19" value="" style="shape=mxgraph.cisco.switches.workgroup_switch;sketch=0;html=1;pointerEvents=1;dashed=0;fillColor=#036897;strokeColor=#ffffff;strokeWidth=2;verticalLabelPosition=bottom;verticalAlign=top;align=center;outlineConnect=0;" parent="1" vertex="1">
          <mxGeometry x="1391.5" y="490" width="80" height="40" as="geometry" />
        </mxCell>
        <mxCell id="OgpxmW688mGqOEu5eJft-20" value="Switch" style="shape=mxgraph.cisco.switches.workgroup_switch;sketch=0;html=1;pointerEvents=1;dashed=0;fillColor=#036897;strokeColor=#ffffff;strokeWidth=2;verticalLabelPosition=bottom;verticalAlign=top;align=center;outlineConnect=0;" parent="1" vertex="1">
          <mxGeometry x="696.5" y="490" width="80" height="40" as="geometry" />
        </mxCell>
        <mxCell id="OgpxmW688mGqOEu5eJft-21" value="VLAN 800" style="shape=mxgraph.cisco.switches.workgroup_switch;sketch=0;html=1;pointerEvents=1;dashed=0;fillColor=#036897;strokeColor=#ffffff;strokeWidth=2;verticalLabelPosition=bottom;verticalAlign=top;align=center;outlineConnect=0;" parent="1" vertex="1">
          <mxGeometry x="1076.5" y="490" width="80" height="40" as="geometry" />
        </mxCell>
        <mxCell id="OgpxmW688mGqOEu5eJft-22" value="&lt;div&gt;PC1&lt;/div&gt;&lt;div&gt;192.168.144.1&lt;/div&gt;/22" style="text;html=1;align=center;verticalAlign=middle;resizable=0;points=[];autosize=1;strokeColor=none;fillColor=none;" parent="1" vertex="1">
          <mxGeometry x="268.5" y="165" width="100" height="60" as="geometry" />
        </mxCell>
        <mxCell id="OgpxmW688mGqOEu5eJft-23" value="&lt;div&gt;TELEPHONE 1&lt;/div&gt;&lt;div&gt;20911&lt;/div&gt;&lt;div&gt;192.168.144.11/22&lt;/div&gt;" style="text;html=1;align=center;verticalAlign=middle;resizable=0;points=[];autosize=1;strokeColor=none;fillColor=none;" parent="1" vertex="1">
          <mxGeometry x="255" y="240" width="120" height="60" as="geometry" />
        </mxCell>
        <mxCell id="OgpxmW688mGqOEu5eJft-24" value="" style="shape=mxgraph.cisco.computers_and_peripherals.pc;sketch=0;html=1;pointerEvents=1;dashed=0;fillColor=#036897;strokeColor=#ffffff;strokeWidth=2;verticalLabelPosition=bottom;verticalAlign=top;align=center;outlineConnect=0;" parent="1" vertex="1">
          <mxGeometry x="377" y="350" width="50" height="50" as="geometry" />
        </mxCell>
        <mxCell id="OgpxmW688mGqOEu5eJft-25" value="" style="shape=mxgraph.cisco.modems_and_phones.phone;sketch=0;html=1;pointerEvents=1;dashed=0;fillColor=#036897;strokeColor=#ffffff;strokeWidth=2;verticalLabelPosition=bottom;verticalAlign=top;align=center;outlineConnect=0;" parent="1" vertex="1">
          <mxGeometry x="363" y="420" width="64" height="46" as="geometry" />
        </mxCell>
        <mxCell id="OgpxmW688mGqOEu5eJft-26" value="&lt;div&gt;PC2&lt;/div&gt;&lt;div&gt;192.168.148.1&lt;/div&gt;/22" style="text;html=1;align=center;verticalAlign=middle;resizable=0;points=[];autosize=1;strokeColor=none;fillColor=none;" parent="1" vertex="1">
          <mxGeometry x="265" y="345" width="100" height="60" as="geometry" />
        </mxCell>
        <mxCell id="OgpxmW688mGqOEu5eJft-27" value="&lt;div&gt;TELEPHONE 2&lt;/div&gt;&lt;div&gt;20912&lt;/div&gt;&lt;div&gt;192.168.148.12/22&lt;/div&gt;" style="text;html=1;align=center;verticalAlign=middle;resizable=0;points=[];autosize=1;strokeColor=none;fillColor=none;" parent="1" vertex="1">
          <mxGeometry x="255" y="420" width="120" height="60" as="geometry" />
        </mxCell>
        <mxCell id="OgpxmW688mGqOEu5eJft-28" value="" style="shape=mxgraph.cisco.computers_and_peripherals.pc;sketch=0;html=1;pointerEvents=1;dashed=0;fillColor=#036897;strokeColor=#ffffff;strokeWidth=2;verticalLabelPosition=bottom;verticalAlign=top;align=center;outlineConnect=0;" parent="1" vertex="1">
          <mxGeometry x="370" y="550" width="50" height="50" as="geometry" />
        </mxCell>
        <mxCell id="OgpxmW688mGqOEu5eJft-29" value="&lt;div&gt;PC3&lt;/div&gt;&lt;div&gt;192.168.152.1&lt;/div&gt;/22" style="text;html=1;align=center;verticalAlign=middle;resizable=0;points=[];autosize=1;strokeColor=none;fillColor=none;" parent="1" vertex="1">
          <mxGeometry x="265" y="545" width="100" height="60" as="geometry" />
        </mxCell>
        <mxCell id="OgpxmW688mGqOEu5eJft-30" value="" style="shape=mxgraph.cisco.computers_and_peripherals.pc;sketch=0;html=1;pointerEvents=1;dashed=0;fillColor=#036897;strokeColor=#ffffff;strokeWidth=2;verticalLabelPosition=bottom;verticalAlign=top;align=center;outlineConnect=0;" parent="1" vertex="1">
          <mxGeometry x="370" y="630" width="50" height="50" as="geometry" />
        </mxCell>
        <mxCell id="OgpxmW688mGqOEu5eJft-31" value="&lt;div&gt;PC4&lt;/div&gt;&lt;div&gt;192.168.152.2&lt;/div&gt;/22" style="text;html=1;align=center;verticalAlign=middle;resizable=0;points=[];autosize=1;strokeColor=none;fillColor=none;" parent="1" vertex="1">
          <mxGeometry x="265" y="625" width="100" height="60" as="geometry" />
        </mxCell>
        <mxCell id="OgpxmW688mGqOEu5eJft-32" value="&lt;div&gt;CAM1&lt;/div&gt;&lt;div&gt;192.168.152.13/22&lt;/div&gt;" style="text;html=1;align=center;verticalAlign=middle;resizable=0;points=[];autosize=1;strokeColor=none;fillColor=none;" parent="1" vertex="1">
          <mxGeometry x="255" y="720" width="120" height="40" as="geometry" />
        </mxCell>
        <mxCell id="OgpxmW688mGqOEu5eJft-33" value="&lt;div&gt;CAM2&lt;/div&gt;&lt;div&gt;192.168.152.14/22&lt;/div&gt;" style="text;html=1;align=center;verticalAlign=middle;resizable=0;points=[];autosize=1;strokeColor=none;fillColor=none;" parent="1" vertex="1">
          <mxGeometry x="258.5" y="820" width="120" height="40" as="geometry" />
        </mxCell>
        <mxCell id="OgpxmW688mGqOEu5eJft-34" style="edgeStyle=orthogonalEdgeStyle;rounded=0;orthogonalLoop=1;jettySize=auto;html=1;exitX=0;exitY=0.5;exitDx=0;exitDy=0;exitPerimeter=0;entryX=1;entryY=0.5;entryDx=0;entryDy=0;entryPerimeter=0;" parent="1" source="OgpxmW688mGqOEu5eJft-20" target="OgpxmW688mGqOEu5eJft-25" edge="1">
          <mxGeometry relative="1" as="geometry">
            <Array as="points">
              <mxPoint x="480" y="510" />
              <mxPoint x="480" y="443" />
            </Array>
          </mxGeometry>
        </mxCell>
        <mxCell id="OgpxmW688mGqOEu5eJft-35" style="edgeStyle=orthogonalEdgeStyle;rounded=0;orthogonalLoop=1;jettySize=auto;html=1;exitX=0;exitY=0.5;exitDx=0;exitDy=0;exitPerimeter=0;" parent="1" source="OgpxmW688mGqOEu5eJft-20" edge="1">
          <mxGeometry relative="1" as="geometry">
            <mxPoint x="420" y="375" as="targetPoint" />
            <Array as="points">
              <mxPoint x="520" y="510" />
              <mxPoint x="520" y="375" />
            </Array>
          </mxGeometry>
        </mxCell>
        <mxCell id="OgpxmW688mGqOEu5eJft-36" style="edgeStyle=orthogonalEdgeStyle;rounded=0;orthogonalLoop=1;jettySize=auto;html=1;exitX=0;exitY=0.5;exitDx=0;exitDy=0;exitPerimeter=0;entryX=1;entryY=0.5;entryDx=0;entryDy=0;entryPerimeter=0;" parent="1" source="OgpxmW688mGqOEu5eJft-20" target="OgpxmW688mGqOEu5eJft-15" edge="1">
          <mxGeometry relative="1" as="geometry">
            <Array as="points">
              <mxPoint x="560" y="510" />
              <mxPoint x="560" y="263" />
            </Array>
          </mxGeometry>
        </mxCell>
        <mxCell id="OgpxmW688mGqOEu5eJft-37" style="edgeStyle=orthogonalEdgeStyle;rounded=0;orthogonalLoop=1;jettySize=auto;html=1;exitX=0;exitY=0.5;exitDx=0;exitDy=0;exitPerimeter=0;" parent="1" source="OgpxmW688mGqOEu5eJft-20" target="OgpxmW688mGqOEu5eJft-6" edge="1">
          <mxGeometry relative="1" as="geometry">
            <Array as="points">
              <mxPoint x="600" y="510" />
              <mxPoint x="600" y="195" />
            </Array>
          </mxGeometry>
        </mxCell>
        <mxCell id="OgpxmW688mGqOEu5eJft-38" style="edgeStyle=orthogonalEdgeStyle;rounded=0;orthogonalLoop=1;jettySize=auto;html=1;exitX=0;exitY=0.5;exitDx=0;exitDy=0;exitPerimeter=0;entryX=0.83;entryY=0.5;entryDx=0;entryDy=0;entryPerimeter=0;" parent="1" source="OgpxmW688mGqOEu5eJft-20" target="OgpxmW688mGqOEu5eJft-28" edge="1">
          <mxGeometry relative="1" as="geometry">
            <Array as="points">
              <mxPoint x="480" y="510" />
              <mxPoint x="480" y="575" />
            </Array>
          </mxGeometry>
        </mxCell>
        <mxCell id="OgpxmW688mGqOEu5eJft-39" style="edgeStyle=orthogonalEdgeStyle;rounded=0;orthogonalLoop=1;jettySize=auto;html=1;exitX=0;exitY=0.5;exitDx=0;exitDy=0;exitPerimeter=0;entryX=0.83;entryY=0.5;entryDx=0;entryDy=0;entryPerimeter=0;" parent="1" source="OgpxmW688mGqOEu5eJft-20" target="OgpxmW688mGqOEu5eJft-30" edge="1">
          <mxGeometry relative="1" as="geometry">
            <Array as="points">
              <mxPoint x="520" y="510" />
              <mxPoint x="520" y="655" />
            </Array>
          </mxGeometry>
        </mxCell>
        <mxCell id="OgpxmW688mGqOEu5eJft-40" style="edgeStyle=orthogonalEdgeStyle;rounded=0;orthogonalLoop=1;jettySize=auto;html=1;exitX=0;exitY=0.5;exitDx=0;exitDy=0;exitPerimeter=0;entryX=0.63;entryY=0.5;entryDx=0;entryDy=0;entryPerimeter=0;" parent="1" source="OgpxmW688mGqOEu5eJft-20" target="OgpxmW688mGqOEu5eJft-13" edge="1">
          <mxGeometry relative="1" as="geometry">
            <Array as="points">
              <mxPoint x="560" y="510" />
              <mxPoint x="560" y="740" />
            </Array>
          </mxGeometry>
        </mxCell>
        <mxCell id="OgpxmW688mGqOEu5eJft-41" style="edgeStyle=orthogonalEdgeStyle;rounded=0;orthogonalLoop=1;jettySize=auto;html=1;exitX=0;exitY=0.5;exitDx=0;exitDy=0;exitPerimeter=0;entryX=0.63;entryY=0.5;entryDx=0;entryDy=0;entryPerimeter=0;" parent="1" source="OgpxmW688mGqOEu5eJft-20" target="OgpxmW688mGqOEu5eJft-12" edge="1">
          <mxGeometry relative="1" as="geometry">
            <Array as="points">
              <mxPoint x="600" y="510" />
              <mxPoint x="600" y="840" />
            </Array>
          </mxGeometry>
        </mxCell>
        <mxCell id="OgpxmW688mGqOEu5eJft-42" style="edgeStyle=orthogonalEdgeStyle;shape=link;rounded=0;orthogonalLoop=1;jettySize=auto;html=1;exitX=0.98;exitY=0.5;exitDx=0;exitDy=0;exitPerimeter=0;entryX=0;entryY=0.5;entryDx=0;entryDy=0;entryPerimeter=0;" parent="1" source="OgpxmW688mGqOEu5eJft-20" target="OgpxmW688mGqOEu5eJft-16" edge="1">
          <mxGeometry relative="1" as="geometry" />
        </mxCell>
        <mxCell id="OgpxmW688mGqOEu5eJft-43" style="edgeStyle=orthogonalEdgeStyle;shape=link;rounded=0;orthogonalLoop=1;jettySize=auto;html=1;exitX=1;exitY=0.5;exitDx=0;exitDy=0;exitPerimeter=0;entryX=0;entryY=0.5;entryDx=0;entryDy=0;entryPerimeter=0;" parent="1" source="OgpxmW688mGqOEu5eJft-16" target="OgpxmW688mGqOEu5eJft-21" edge="1">
          <mxGeometry relative="1" as="geometry" />
        </mxCell>
        <mxCell id="OgpxmW688mGqOEu5eJft-44" style="edgeStyle=orthogonalEdgeStyle;shape=link;rounded=0;orthogonalLoop=1;jettySize=auto;html=1;exitX=0.98;exitY=0.5;exitDx=0;exitDy=0;exitPerimeter=0;entryX=0;entryY=0.5;entryDx=0;entryDy=0;entryPerimeter=0;" parent="1" source="OgpxmW688mGqOEu5eJft-21" target="OgpxmW688mGqOEu5eJft-19" edge="1">
          <mxGeometry relative="1" as="geometry" />
        </mxCell>
        <mxCell id="OgpxmW688mGqOEu5eJft-45" value="&amp;nbsp;" style="text;whiteSpace=wrap;html=1;" parent="1" vertex="1">
          <mxGeometry x="850" y="1270" width="40" height="40" as="geometry" />
        </mxCell>
        <mxCell id="OgpxmW688mGqOEu5eJft-46" style="edgeStyle=orthogonalEdgeStyle;rounded=0;orthogonalLoop=1;jettySize=auto;html=1;exitX=0.5;exitY=0;exitDx=0;exitDy=0;exitPerimeter=0;entryX=0.5;entryY=1;entryDx=0;entryDy=0;entryPerimeter=0;" parent="1" source="OgpxmW688mGqOEu5eJft-19" target="OgpxmW688mGqOEu5eJft-10" edge="1">
          <mxGeometry relative="1" as="geometry" />
        </mxCell>
        <mxCell id="OgpxmW688mGqOEu5eJft-47" style="edgeStyle=orthogonalEdgeStyle;rounded=0;orthogonalLoop=1;jettySize=auto;html=1;exitX=0.5;exitY=0;exitDx=0;exitDy=0;exitPerimeter=0;entryX=0.5;entryY=1;entryDx=0;entryDy=0;entryPerimeter=0;" parent="1" source="OgpxmW688mGqOEu5eJft-19" target="OgpxmW688mGqOEu5eJft-9" edge="1">
          <mxGeometry relative="1" as="geometry" />
        </mxCell>
        <mxCell id="OgpxmW688mGqOEu5eJft-48" style="edgeStyle=orthogonalEdgeStyle;rounded=0;orthogonalLoop=1;jettySize=auto;html=1;exitX=0.5;exitY=0;exitDx=0;exitDy=0;exitPerimeter=0;entryX=0.5;entryY=1;entryDx=0;entryDy=0;entryPerimeter=0;" parent="1" source="OgpxmW688mGqOEu5eJft-19" target="OgpxmW688mGqOEu5eJft-7" edge="1">
          <mxGeometry relative="1" as="geometry" />
        </mxCell>
        <mxCell id="OgpxmW688mGqOEu5eJft-49" style="edgeStyle=orthogonalEdgeStyle;shape=link;rounded=0;orthogonalLoop=1;jettySize=auto;html=1;exitX=0.5;exitY=0.98;exitDx=0;exitDy=0;exitPerimeter=0;entryX=0.5;entryY=0;entryDx=0;entryDy=0;entryPerimeter=0;" parent="1" source="OgpxmW688mGqOEu5eJft-19" target="OgpxmW688mGqOEu5eJft-17" edge="1">
          <mxGeometry relative="1" as="geometry" />
        </mxCell>
        <mxCell id="OgpxmW688mGqOEu5eJft-52" style="edgeStyle=orthogonalEdgeStyle;rounded=0;orthogonalLoop=1;jettySize=auto;html=1;exitX=0.5;exitY=0;exitDx=0;exitDy=0;exitPerimeter=0;entryX=0.5;entryY=1;entryDx=0;entryDy=0;entryPerimeter=0;" parent="1" source="OgpxmW688mGqOEu5eJft-20" target="OgpxmW688mGqOEu5eJft-11" edge="1">
          <mxGeometry relative="1" as="geometry" />
        </mxCell>
        <mxCell id="OgpxmW688mGqOEu5eJft-53" style="edgeStyle=orthogonalEdgeStyle;rounded=0;orthogonalLoop=1;jettySize=auto;html=1;exitX=0.5;exitY=0.98;exitDx=0;exitDy=0;exitPerimeter=0;entryX=0.5;entryY=0;entryDx=0;entryDy=0;entryPerimeter=0;" parent="1" source="OgpxmW688mGqOEu5eJft-20" target="OgpxmW688mGqOEu5eJft-8" edge="1">
          <mxGeometry relative="1" as="geometry" />
        </mxCell>
        <mxCell id="OgpxmW688mGqOEu5eJft-54" value="&lt;font style=&quot;font-size: 48px;&quot;&gt;Société 9&lt;/font&gt;" style="text;html=1;align=center;verticalAlign=middle;resizable=0;points=[];autosize=1;strokeColor=none;fillColor=none;" parent="1" vertex="1">
          <mxGeometry x="220" y="60" width="220" height="70" as="geometry" />
        </mxCell>
        <mxCell id="OgpxmW688mGqOEu5eJft-55" value="&lt;div&gt;&lt;font style=&quot;font-size: 48px;&quot;&gt;Bureau&amp;nbsp;&lt;/font&gt;&lt;/div&gt;&lt;div&gt;&lt;font style=&quot;font-size: 48px;&quot;&gt;Mr Gombert&lt;/font&gt;&lt;/div&gt;" style="text;html=1;align=center;verticalAlign=middle;resizable=0;points=[];autosize=1;strokeColor=none;fillColor=none;" parent="1" vertex="1">
          <mxGeometry x="1390" y="155" width="280" height="130" as="geometry" />
        </mxCell>
        <mxCell id="OgpxmW688mGqOEu5eJft-56" value="&lt;div&gt;&lt;font style=&quot;font-size: 24px;&quot;&gt;Vlan 10&lt;/font&gt;&lt;/div&gt;&lt;div&gt;&lt;font style=&quot;font-size: 36px;&quot;&gt;&lt;font style=&quot;font-size: 24px;&quot;&gt;Centraux&lt;/font&gt;&lt;/font&gt;&lt;/div&gt;&lt;div&gt;&lt;font style=&quot;font-size: 12px;&quot;&gt;&lt;font&gt;192.168.144.0/22&lt;/font&gt;&lt;/font&gt;&lt;/div&gt;" style="text;html=1;align=center;verticalAlign=middle;resizable=0;points=[];autosize=1;strokeColor=none;fillColor=none;" parent="1" vertex="1">
          <mxGeometry x="120" y="177.5" width="120" height="100" as="geometry" />
        </mxCell>
        <mxCell id="OgpxmW688mGqOEu5eJft-57" value="&lt;div&gt;&lt;font style=&quot;font-size: 24px;&quot;&gt;Vlan 20&lt;/font&gt;&lt;/div&gt;&lt;div&gt;&lt;font style=&quot;font-size: 24px;&quot;&gt;Production&lt;/font&gt;&lt;/div&gt;&lt;div&gt;&lt;font style=&quot;font-size: 12px;&quot;&gt;&lt;font&gt;192.168.148.0/22&lt;/font&gt;&lt;/font&gt;&lt;/div&gt;" style="text;html=1;align=center;verticalAlign=middle;resizable=0;points=[];autosize=1;strokeColor=none;fillColor=none;" parent="1" vertex="1">
          <mxGeometry x="110" y="367.5" width="140" height="90" as="geometry" />
        </mxCell>
        <mxCell id="OgpxmW688mGqOEu5eJft-58" value="&lt;div&gt;&lt;font style=&quot;font-size: 24px;&quot;&gt;Vlan 30&lt;/font&gt;&lt;/div&gt;&lt;div&gt;&lt;font style=&quot;font-size: 24px;&quot;&gt;IT&lt;/font&gt;&lt;/div&gt;&lt;div&gt;&lt;font style=&quot;font-size: 12px;&quot;&gt;192.168.152.0/22&lt;/font&gt;&lt;/div&gt;" style="text;html=1;align=center;verticalAlign=middle;resizable=0;points=[];autosize=1;strokeColor=none;fillColor=none;" parent="1" vertex="1">
          <mxGeometry x="120" y="670" width="120" height="90" as="geometry" />
        </mxCell>
        <mxCell id="OgpxmW688mGqOEu5eJft-59" value="&lt;div&gt;&lt;font style=&quot;font-size: 15px;&quot;&gt;Docker&lt;/font&gt;&lt;/div&gt;&lt;div&gt;&lt;font style=&quot;font-size: 15px;&quot;&gt;192.168.159.253/20&lt;/font&gt;&lt;/div&gt;" style="text;html=1;align=center;verticalAlign=middle;resizable=0;points=[];autosize=1;strokeColor=none;fillColor=none;" parent="1" vertex="1">
          <mxGeometry x="656.5" y="230" width="160" height="50" as="geometry" />
        </mxCell>
        <mxCell id="OgpxmW688mGqOEu5eJft-60" value="&lt;div&gt;&lt;font style=&quot;font-size: 15px;&quot;&gt;Windows Serveur&lt;/font&gt;&lt;/div&gt;&lt;div&gt;&lt;font style=&quot;font-size: 15px;&quot;&gt;192.168.159.252/20&lt;/font&gt;&lt;/div&gt;" style="text;html=1;align=center;verticalAlign=middle;resizable=0;points=[];autosize=1;strokeColor=none;fillColor=none;" parent="1" vertex="1">
          <mxGeometry x="656.5" y="730" width="160" height="50" as="geometry" />
        </mxCell>
        <mxCell id="OgpxmW688mGqOEu5eJft-61" value="&amp;nbsp;" style="text;whiteSpace=wrap;html=1;" parent="1" vertex="1">
          <mxGeometry x="-260" y="-320" width="40" height="40" as="geometry" />
        </mxCell>
        <mxCell id="OgpxmW688mGqOEu5eJft-62" value="&amp;nbsp;" style="text;whiteSpace=wrap;html=1;" parent="1" vertex="1">
          <mxGeometry x="130" y="720" width="40" height="40" as="geometry" />
        </mxCell>
        <mxCell id="OgpxmW688mGqOEu5eJft-64" value="&lt;div&gt;TELEPHONE OLIVIER&lt;/div&gt;&lt;div&gt;10000&lt;/div&gt;" style="text;html=1;align=center;verticalAlign=middle;resizable=0;points=[];autosize=1;strokeColor=none;fillColor=none;" parent="1" vertex="1">
          <mxGeometry x="1600" y="493" width="150" height="40" as="geometry" />
        </mxCell>
        <mxCell id="OgpxmW688mGqOEu5eJft-66" value="&lt;div&gt;Serveur Téléphonie&lt;/div&gt;10.0.0.3/12" style="text;html=1;align=center;verticalAlign=middle;resizable=0;points=[];autosize=1;strokeColor=none;fillColor=none;" parent="1" vertex="1">
          <mxGeometry x="1500" y="337.5" width="140" height="40" as="geometry" />
        </mxCell>
        <mxCell id="OgpxmW688mGqOEu5eJft-67" value="&lt;div&gt;Serveur WEB&lt;/div&gt;10.0.0.5/12" style="text;html=1;align=center;verticalAlign=middle;resizable=0;points=[];autosize=1;strokeColor=none;fillColor=none;" parent="1" vertex="1">
          <mxGeometry x="1697" y="337.5" width="100" height="40" as="geometry" />
        </mxCell>
        <mxCell id="OgpxmW688mGqOEu5eJft-69" value="&lt;div&gt;Serveur DNS&lt;/div&gt;10.0.0.7/12" style="text;html=1;align=center;verticalAlign=middle;resizable=0;points=[];autosize=1;strokeColor=none;fillColor=none;" parent="1" vertex="1">
          <mxGeometry x="1321" y="337.5" width="90" height="40" as="geometry" />
        </mxCell>
        <mxCell id="OgpxmW688mGqOEu5eJft-71" value="&amp;nbsp;" style="text;whiteSpace=wrap;html=1;" parent="1" vertex="1">
          <mxGeometry x="640" y="-350" width="40" height="40" as="geometry" />
        </mxCell>
        <mxCell id="OgpxmW688mGqOEu5eJft-75" value="&amp;nbsp;" style="text;whiteSpace=wrap;html=1;" parent="1" vertex="1">
          <mxGeometry x="280" y="520" width="40" height="40" as="geometry" />
        </mxCell>
        <mxCell id="OgpxmW688mGqOEu5eJft-78" value="192.168.159.254/20" style="text;html=1;align=center;verticalAlign=middle;resizable=0;points=[];autosize=1;strokeColor=none;fillColor=none;" parent="1" vertex="1">
          <mxGeometry x="822.5" y="413" width="130" height="30" as="geometry" />
        </mxCell>
        <mxCell id="OgpxmW688mGqOEu5eJft-79" style="edgeStyle=orthogonalEdgeStyle;rounded=0;orthogonalLoop=1;jettySize=auto;html=1;entryX=0.12;entryY=0.1;entryDx=0;entryDy=0;entryPerimeter=0;" parent="1" source="OgpxmW688mGqOEu5eJft-78" target="OgpxmW688mGqOEu5eJft-16" edge="1">
          <mxGeometry relative="1" as="geometry" />
        </mxCell>
        <mxCell id="OgpxmW688mGqOEu5eJft-80" value="10.9.1.1/12" style="text;html=1;align=center;verticalAlign=middle;resizable=0;points=[];autosize=1;strokeColor=none;fillColor=none;" parent="1" vertex="1">
          <mxGeometry x="920" y="437" width="80" height="30" as="geometry" />
        </mxCell>
        <mxCell id="OgpxmW688mGqOEu5eJft-82" style="edgeStyle=orthogonalEdgeStyle;rounded=0;orthogonalLoop=1;jettySize=auto;html=1;entryX=0.88;entryY=0.1;entryDx=0;entryDy=0;entryPerimeter=0;" parent="1" source="OgpxmW688mGqOEu5eJft-80" target="OgpxmW688mGqOEu5eJft-16" edge="1">
          <mxGeometry relative="1" as="geometry">
            <Array as="points">
              <mxPoint x="960" y="480" />
              <mxPoint x="947" y="480" />
            </Array>
          </mxGeometry>
        </mxCell>
        <mxCell id="OgpxmW688mGqOEu5eJft-90" value="10.0.0.1/12" style="text;html=1;align=center;verticalAlign=middle;resizable=0;points=[];autosize=1;strokeColor=none;fillColor=none;" parent="1" vertex="1">
          <mxGeometry x="1425" y="572" width="80" height="30" as="geometry" />
        </mxCell>
        <mxCell id="Igww7J7V8b7KfNuYDj0Q-1" value="192.168.144.0/20" style="text;whiteSpace=wrap;fontSize=24;" vertex="1" parent="1">
          <mxGeometry x="540" y="80" width="200" height="40" as="geometry" />
        </mxCell>
      </root>
    </mxGraphModel>
  </diagram>
</mxfile>
